<?xml version="1.0" encoding="UTF-8"?>
<svg xmlns="http://www.w3.org/2000/svg" xmlns:xlink="http://www.w3.org/1999/xlink" width="672" height="480" viewBox="0 0 672 480">
<defs>
<g>
<g id="glyph-0-0-f7594d85">
<path d="M 9.5 0 C 9.5 0 7.921875 0 7.921875 0 C 7.734375 -0.421875 7.609375 -1.03125 7.625 -1.671875 C 7.625 -1.671875 7.640625 -2.578125 7.640625 -2.578125 C 7.65625 -3.84375 7.109375 -4.390625 5.96875 -4.390625 C 5.96875 -4.390625 2.609375 -4.390625 2.609375 -4.390625 C 2.609375 -4.390625 2.609375 0 2.609375 0 C 2.609375 0 1.296875 0 1.296875 0 C 1.296875 0 1.296875 -10.203125 1.296875 -10.203125 C 1.296875 -10.203125 6 -10.203125 6 -10.203125 C 8.015625 -10.203125 9.109375 -9.234375 9.109375 -7.46875 C 9.109375 -6.3125 8.65625 -5.59375 7.5 -5.046875 C 8.609375 -4.5625 8.859375 -4.0625 8.890625 -2.375 C 8.90625 -1.015625 9.015625 -0.65625 9.5 -0.328125 C 9.5 -0.328125 9.5 0 9.5 0 Z M 7.75 -7.296875 C 7.75 -8.4375 7.203125 -9.0625 5.75 -9.0625 C 5.75 -9.0625 2.609375 -9.0625 2.609375 -9.0625 C 2.609375 -9.0625 2.609375 -5.546875 2.609375 -5.546875 C 2.609375 -5.546875 5.75 -5.546875 5.75 -5.546875 C 7.140625 -5.546875 7.75 -6.09375 7.75 -7.296875 Z M 7.75 -7.296875 "/>
</g>
<g id="glyph-0-1-f7594d85">
<path d="M 7.1875 -3.328125 C 7.1875 -3.328125 1.78125 -3.328125 1.78125 -3.328125 C 1.8125 -1.65625 2.71875 -0.875 3.9375 -0.875 C 4.875 -0.875 5.53125 -1.265625 5.859375 -2.21875 C 5.859375 -2.21875 7.03125 -2.21875 7.03125 -2.21875 C 6.734375 -0.734375 5.578125 0.203125 3.890625 0.203125 C 1.828125 0.203125 0.5625 -1.21875 0.5625 -3.625 C 0.5625 -6.03125 1.875 -7.546875 3.921875 -7.546875 C 5.296875 -7.546875 6.40625 -6.8125 6.890625 -5.609375 C 7.09375 -5.0625 7.1875 -4.390625 7.1875 -3.328125 Z M 5.9375 -4.375 C 5.9375 -5.515625 5.046875 -6.46875 3.90625 -6.46875 C 2.734375 -6.46875 1.90625 -5.59375 1.8125 -4.28125 C 1.8125 -4.28125 5.921875 -4.28125 5.921875 -4.28125 C 5.9375 -4.3125 5.9375 -4.375 5.9375 -4.375 Z M 5.9375 -4.375 "/>
</g>
<g id="glyph-1-0-f7594d85">
<path d="M 7.484375 -0.03125 C 7.109375 0.0625 6.9375 0.09375 6.6875 0.09375 C 6.125 0.09375 5.609375 -0.3125 5.484375 -0.875 C 4.84375 -0.1875 3.9375 0.203125 3 0.203125 C 1.515625 0.203125 0.59375 -0.578125 0.59375 -1.90625 C 0.59375 -2.796875 1.015625 -3.453125 1.875 -3.8125 C 2.328125 -3.984375 2.578125 -4.046875 4.234375 -4.25 C 5.15625 -4.375 5.453125 -4.578125 5.453125 -5.0625 C 5.453125 -5.0625 5.453125 -5.375 5.453125 -5.375 C 5.453125 -6.078125 4.859375 -6.46875 3.8125 -6.46875 C 2.71875 -6.46875 2.1875 -6.0625 2.09375 -5.171875 C 2.09375 -5.171875 0.90625 -5.171875 0.90625 -5.171875 C 0.984375 -6.859375 2.078125 -7.546875 3.84375 -7.546875 C 5.65625 -7.546875 6.609375 -6.84375 6.609375 -5.546875 C 6.609375 -5.546875 6.609375 -1.453125 6.609375 -1.453125 C 6.609375 -1.09375 6.828125 -0.875 7.234375 -0.875 C 7.3125 -0.875 7.359375 -0.875 7.484375 -0.90625 C 7.484375 -0.90625 7.484375 -0.03125 7.484375 -0.03125 Z M 5.453125 -2.53125 C 5.453125 -2.53125 5.453125 -3.625 5.453125 -3.625 C 5.046875 -3.4375 4.796875 -3.390625 3.5625 -3.21875 C 2.328125 -3.03125 1.8125 -2.703125 1.8125 -1.9375 C 1.8125 -1.140625 2.34375 -0.8125 3.25 -0.8125 C 4.375 -0.8125 5.453125 -1.484375 5.453125 -2.53125 Z M 5.453125 -2.53125 "/>
</g>
<g id="glyph-1-1-f7594d85">
<path d="M 2.109375 0 C 2.109375 0 0.953125 0 0.953125 0 C 0.953125 0 0.953125 -10.203125 0.953125 -10.203125 C 0.953125 -10.203125 2.109375 -10.203125 2.109375 -10.203125 C 2.109375 -10.203125 2.109375 0 2.109375 0 Z M 2.109375 0 "/>
</g>
<g id="glyph-2-0-f7594d85">
<path d="M 7.21875 -3.03125 C 7.21875 -3.03125 0.953125 -3.03125 0.953125 -3.03125 C 0.953125 -3.03125 0.953125 -3.96875 0.953125 -3.96875 C 0.953125 -3.96875 7.21875 -3.96875 7.21875 -3.96875 C 7.21875 -3.96875 7.21875 -3.03125 7.21875 -3.03125 Z M 7.21875 -3.03125 "/>
</g>
<g id="glyph-3-0-f7594d85">
<path d="M 7.1875 -3.296875 C 7.1875 -1.1875 5.78125 0.203125 3.78125 0.203125 C 2.015625 0.203125 0.890625 -0.578125 0.484375 -2.546875 C 0.484375 -2.546875 1.71875 -2.546875 1.71875 -2.546875 C 2.015625 -1.421875 2.671875 -0.875 3.75 -0.875 C 5.09375 -0.875 5.921875 -1.6875 5.921875 -3.125 C 5.921875 -4.59375 5.078125 -5.453125 3.75 -5.453125 C 2.984375 -5.453125 2.5 -5.203125 1.9375 -4.515625 C 1.9375 -4.515625 0.796875 -4.515625 0.796875 -4.515625 C 0.796875 -4.515625 1.546875 -9.71875 1.546875 -9.71875 C 1.546875 -9.71875 6.65625 -9.71875 6.65625 -9.71875 C 6.65625 -9.71875 6.65625 -8.5 6.65625 -8.5 C 6.65625 -8.5 2.53125 -8.5 2.53125 -8.5 C 2.53125 -8.5 2.140625 -5.9375 2.140625 -5.9375 C 2.71875 -6.359375 3.28125 -6.53125 3.96875 -6.53125 C 5.875 -6.53125 7.1875 -5.25 7.1875 -3.296875 Z M 7.1875 -3.296875 "/>
</g>
<g id="glyph-3-1-f7594d85">
<path d="M 7.09375 -4.78125 C 7.09375 -1.515625 5.953125 0.203125 3.84375 0.203125 C 1.71875 0.203125 0.609375 -1.515625 0.609375 -4.859375 C 0.609375 -8.1875 1.703125 -9.921875 3.84375 -9.921875 C 6 -9.921875 7.09375 -8.21875 7.09375 -4.78125 Z M 5.84375 -4.890625 C 5.84375 -7.546875 5.1875 -8.828125 3.84375 -8.828125 C 2.515625 -8.828125 1.859375 -7.5625 1.859375 -4.84375 C 1.859375 -2.125 2.515625 -0.8125 3.828125 -0.8125 C 5.1875 -0.8125 5.84375 -2.078125 5.84375 -4.890625 Z M 5.84375 -4.890625 "/>
</g>
<g id="glyph-4-0-f7594d85">
<path d="M 7.09375 -4.78125 C 7.09375 -1.515625 5.953125 0.203125 3.84375 0.203125 C 1.71875 0.203125 0.609375 -1.515625 0.609375 -4.859375 C 0.609375 -8.1875 1.703125 -9.921875 3.84375 -9.921875 C 6 -9.921875 7.09375 -8.21875 7.09375 -4.78125 Z M 5.84375 -4.890625 C 5.84375 -7.546875 5.1875 -8.828125 3.84375 -8.828125 C 2.515625 -8.828125 1.859375 -7.5625 1.859375 -4.84375 C 1.859375 -2.125 2.515625 -0.8125 3.828125 -0.8125 C 5.1875 -0.8125 5.84375 -2.078125 5.84375 -4.890625 Z M 5.84375 -4.890625 "/>
</g>
<g id="glyph-4-1-f7594d85">
<path d="M 7.1875 -3.296875 C 7.1875 -1.1875 5.78125 0.203125 3.78125 0.203125 C 2.015625 0.203125 0.890625 -0.578125 0.484375 -2.546875 C 0.484375 -2.546875 1.71875 -2.546875 1.71875 -2.546875 C 2.015625 -1.421875 2.671875 -0.875 3.75 -0.875 C 5.09375 -0.875 5.921875 -1.6875 5.921875 -3.125 C 5.921875 -4.59375 5.078125 -5.453125 3.75 -5.453125 C 2.984375 -5.453125 2.5 -5.203125 1.9375 -4.515625 C 1.9375 -4.515625 0.796875 -4.515625 0.796875 -4.515625 C 0.796875 -4.515625 1.546875 -9.71875 1.546875 -9.71875 C 1.546875 -9.71875 6.65625 -9.71875 6.65625 -9.71875 C 6.65625 -9.71875 6.65625 -8.5 6.65625 -8.5 C 6.65625 -8.5 2.53125 -8.5 2.53125 -8.5 C 2.53125 -8.5 2.140625 -5.9375 2.140625 -5.9375 C 2.71875 -6.359375 3.28125 -6.53125 3.96875 -6.53125 C 5.875 -6.53125 7.1875 -5.25 7.1875 -3.296875 Z M 7.1875 -3.296875 "/>
</g>
<g id="glyph-5-0-f7594d85">
<path d="M 0 -2.703125 C 0 -2.703125 0 -1.40625 0 -1.40625 C 0 -1.40625 -10.203125 -1.40625 -10.203125 -1.40625 C -10.203125 -1.40625 -10.203125 -2.703125 -10.203125 -2.703125 C -10.203125 -2.703125 0 -2.703125 0 -2.703125 Z M 0 -2.703125 "/>
</g>
<g id="glyph-6-0-f7594d85">
<path d="M 0 -10.640625 C 0 -10.640625 0 -9.484375 0 -9.484375 C 0 -9.484375 -5.046875 -9.484375 -5.046875 -9.484375 C -5.984375 -9.484375 -6.53125 -8.984375 -6.53125 -8.140625 C -6.53125 -7.1875 -5.671875 -6.390625 -4.609375 -6.390625 C -4.609375 -6.390625 0 -6.390625 0 -6.390625 C 0 -6.390625 0 -5.234375 0 -5.234375 C 0 -5.234375 -5.046875 -5.234375 -5.046875 -5.234375 C -5.984375 -5.234375 -6.53125 -4.75 -6.53125 -3.875 C -6.53125 -2.921875 -5.671875 -2.15625 -4.609375 -2.15625 C -4.609375 -2.15625 0 -2.15625 0 -2.15625 C 0 -2.15625 0 -1 0 -1 C 0 -1 -7.34375 -1 -7.34375 -1 C -7.34375 -1 -7.34375 -2.0625 -7.34375 -2.0625 C -7.34375 -2.0625 -6.296875 -2.0625 -6.296875 -2.0625 C -7.1875 -2.6875 -7.546875 -3.328125 -7.546875 -4.3125 C -7.546875 -5.265625 -7.203125 -5.859375 -6.421875 -6.28125 C -7.25 -6.96875 -7.546875 -7.5625 -7.546875 -8.546875 C -7.546875 -9.90625 -6.8125 -10.640625 -5.5 -10.640625 C -5.5 -10.640625 0 -10.640625 0 -10.640625 Z M 0 -10.640625 "/>
</g>
<g id="glyph-7-0-f7594d85">
<path d="M -0.03125 -7.484375 C 0.0625 -7.109375 0.09375 -6.9375 0.09375 -6.6875 C 0.09375 -6.125 -0.3125 -5.609375 -0.875 -5.484375 C -0.1875 -4.84375 0.203125 -3.9375 0.203125 -3 C 0.203125 -1.515625 -0.578125 -0.59375 -1.90625 -0.59375 C -2.796875 -0.59375 -3.453125 -1.015625 -3.8125 -1.875 C -3.984375 -2.328125 -4.046875 -2.578125 -4.25 -4.234375 C -4.375 -5.15625 -4.578125 -5.453125 -5.0625 -5.453125 C -5.0625 -5.453125 -5.375 -5.453125 -5.375 -5.453125 C -6.078125 -5.453125 -6.46875 -4.859375 -6.46875 -3.8125 C -6.46875 -2.71875 -6.0625 -2.1875 -5.171875 -2.09375 C -5.171875 -2.09375 -5.171875 -0.90625 -5.171875 -0.90625 C -6.859375 -0.984375 -7.546875 -2.078125 -7.546875 -3.84375 C -7.546875 -5.65625 -6.84375 -6.609375 -5.546875 -6.609375 C -5.546875 -6.609375 -1.453125 -6.609375 -1.453125 -6.609375 C -1.09375 -6.609375 -0.875 -6.828125 -0.875 -7.234375 C -0.875 -7.3125 -0.875 -7.359375 -0.90625 -7.484375 C -0.90625 -7.484375 -0.03125 -7.484375 -0.03125 -7.484375 Z M -2.53125 -5.453125 C -2.53125 -5.453125 -3.625 -5.453125 -3.625 -5.453125 C -3.4375 -5.046875 -3.390625 -4.796875 -3.21875 -3.5625 C -3.03125 -2.328125 -2.703125 -1.8125 -1.9375 -1.8125 C -1.140625 -1.8125 -0.8125 -2.34375 -0.8125 -3.25 C -0.8125 -4.375 -1.484375 -5.453125 -2.53125 -5.453125 Z M -2.53125 -5.453125 "/>
</g>
<g id="glyph-8-0-f7594d85">
<path d="M -1.203125 -6.84375 C 2.03125 -6.84375 3.046875 -5.859375 3.046875 -3.5625 C 3.046875 -1.84375 2.21875 -0.765625 0.84375 -0.640625 C 0.84375 -0.640625 0.84375 -1.828125 0.84375 -1.828125 C 1.734375 -1.96875 2.078125 -2.6875 2.078125 -3.609375 C 2.078125 -4.96875 1.328125 -5.765625 -0.609375 -5.765625 C -0.609375 -5.765625 -1.109375 -5.765625 -1.109375 -5.765625 C -0.1875 -5 0.203125 -4.359375 0.203125 -3.4375 C 0.203125 -1.703125 -1.28125 -0.40625 -3.59375 -0.40625 C -5.984375 -0.40625 -7.546875 -1.671875 -7.546875 -3.53125 C -7.546875 -4.46875 -7.140625 -5.1875 -6.265625 -5.765625 C -6.265625 -5.765625 -7.34375 -5.765625 -7.34375 -5.765625 C -7.34375 -5.765625 -7.34375 -6.84375 -7.34375 -6.84375 C -7.34375 -6.84375 -1.203125 -6.84375 -1.203125 -6.84375 Z M -3.625 -5.65625 C -5.40625 -5.65625 -6.46875 -4.90625 -6.46875 -3.65625 C -6.46875 -2.40625 -5.4375 -1.625 -3.671875 -1.625 C -1.890625 -1.625 -0.875 -2.390625 -0.875 -3.671875 C -0.875 -4.90625 -1.875 -5.65625 -3.625 -5.65625 Z M -3.625 -5.65625 "/>
</g>
<g id="glyph-8-1-f7594d85">
<path d="M 0 -2.140625 C 0 -2.140625 0 -0.984375 0 -0.984375 C 0 -0.984375 -7.34375 -0.984375 -7.34375 -0.984375 C -7.34375 -0.984375 -7.34375 -2.140625 -7.34375 -2.140625 C -7.34375 -2.140625 0 -2.140625 0 -2.140625 Z M -8.4375 -2.296875 C -8.4375 -2.296875 -8.4375 -0.84375 -8.4375 -0.84375 C -8.4375 -0.84375 -9.890625 -0.84375 -9.890625 -0.84375 C -9.890625 -0.84375 -9.890625 -2.296875 -9.890625 -2.296875 C -9.890625 -2.296875 -8.4375 -2.296875 -8.4375 -2.296875 Z M -8.4375 -2.296875 "/>
</g>
<g id="glyph-8-2-f7594d85">
<path d="M 0 -6.8125 C 0 -6.8125 0 -5.65625 0 -5.65625 C 0 -5.65625 -5.078125 -5.65625 -5.078125 -5.65625 C -5.96875 -5.65625 -6.53125 -5.0625 -6.53125 -4.140625 C -6.53125 -2.953125 -5.546875 -2.140625 -4.046875 -2.140625 C -4.046875 -2.140625 0 -2.140625 0 -2.140625 C 0 -2.140625 0 -0.984375 0 -0.984375 C 0 -0.984375 -7.34375 -0.984375 -7.34375 -0.984375 C -7.34375 -0.984375 -7.34375 -2.0625 -7.34375 -2.0625 C -7.34375 -2.0625 -6.109375 -2.0625 -6.109375 -2.0625 C -7.125 -2.703125 -7.546875 -3.40625 -7.546875 -4.5 C -7.546875 -5.90625 -6.765625 -6.8125 -5.546875 -6.8125 C -5.546875 -6.8125 0 -6.8125 0 -6.8125 Z M 0 -6.8125 "/>
</g>
<g id="glyph-8-3-f7594d85">
<path d="M -0.03125 -7.484375 C 0.0625 -7.109375 0.09375 -6.9375 0.09375 -6.6875 C 0.09375 -6.125 -0.3125 -5.609375 -0.875 -5.484375 C -0.1875 -4.84375 0.203125 -3.9375 0.203125 -3 C 0.203125 -1.515625 -0.578125 -0.59375 -1.90625 -0.59375 C -2.796875 -0.59375 -3.453125 -1.015625 -3.8125 -1.875 C -3.984375 -2.328125 -4.046875 -2.578125 -4.25 -4.234375 C -4.375 -5.15625 -4.578125 -5.453125 -5.0625 -5.453125 C -5.0625 -5.453125 -5.375 -5.453125 -5.375 -5.453125 C -6.078125 -5.453125 -6.46875 -4.859375 -6.46875 -3.8125 C -6.46875 -2.71875 -6.0625 -2.1875 -5.171875 -2.09375 C -5.171875 -2.09375 -5.171875 -0.90625 -5.171875 -0.90625 C -6.859375 -0.984375 -7.546875 -2.078125 -7.546875 -3.84375 C -7.546875 -5.65625 -6.84375 -6.609375 -5.546875 -6.609375 C -5.546875 -6.609375 -1.453125 -6.609375 -1.453125 -6.609375 C -1.09375 -6.609375 -0.875 -6.828125 -0.875 -7.234375 C -0.875 -7.3125 -0.875 -7.359375 -0.90625 -7.484375 C -0.90625 -7.484375 -0.03125 -7.484375 -0.03125 -7.484375 Z M -2.53125 -5.453125 C -2.53125 -5.453125 -3.625 -5.453125 -3.625 -5.453125 C -3.4375 -5.046875 -3.390625 -4.796875 -3.21875 -3.5625 C -3.03125 -2.328125 -2.703125 -1.8125 -1.9375 -1.8125 C -1.140625 -1.8125 -0.8125 -2.34375 -0.8125 -3.25 C -0.8125 -4.375 -1.484375 -5.453125 -2.53125 -5.453125 Z M -2.53125 -5.453125 "/>
</g>
<g id="glyph-8-4-f7594d85">
<path d="M -6.3125 -4.5 C -6.28125 -2.6875 -5.453125 -2.140625 -3.8125 -2.140625 C -3.8125 -2.140625 0 -2.140625 0 -2.140625 C 0 -2.140625 0 -0.984375 0 -0.984375 C 0 -0.984375 -7.34375 -0.984375 -7.34375 -0.984375 C -7.34375 -0.984375 -7.34375 -2.046875 -7.34375 -2.046875 C -7.34375 -2.046875 -6 -2.046875 -6 -2.046875 C -7.09375 -2.71875 -7.546875 -3.296875 -7.546875 -4.046875 C -7.546875 -4.203125 -7.53125 -4.296875 -7.5 -4.5 C -7.5 -4.5 -6.3125 -4.5 -6.3125 -4.5 Z M -6.3125 -4.5 "/>
</g>
<g id="glyph-9-0-f7594d85">
<path d="M -7.34375 -6.6875 C -7.34375 -6.6875 1.546875 -3.4375 1.546875 -3.4375 C 2.59375 -3.03125 3.046875 -2.359375 3.046875 -1.546875 C 3.046875 -1.234375 3 -1 2.875 -0.75 C 2.875 -0.75 1.8125 -0.75 1.8125 -0.75 C 1.875 -1.015625 1.90625 -1.203125 1.90625 -1.375 C 1.90625 -1.875 1.703125 -2.109375 1.1875 -2.3125 C 1.1875 -2.3125 0.03125 -2.765625 0.03125 -2.765625 C 0.03125 -2.765625 -7.34375 -0.28125 -7.34375 -0.28125 C -7.34375 -0.28125 -7.34375 -1.53125 -7.34375 -1.53125 C -7.34375 -1.53125 -1.625 -3.40625 -1.625 -3.40625 C -1.625 -3.40625 -7.34375 -5.4375 -7.34375 -5.4375 C -7.34375 -5.4375 -7.34375 -6.6875 -7.34375 -6.6875 Z M -7.34375 -6.6875 "/>
</g>
<g id="glyph-10-0-f7594d85">
<path d="M 7.09375 -4.78125 C 7.09375 -1.515625 5.953125 0.203125 3.84375 0.203125 C 1.71875 0.203125 0.609375 -1.515625 0.609375 -4.859375 C 0.609375 -8.1875 1.703125 -9.921875 3.84375 -9.921875 C 6 -9.921875 7.09375 -8.21875 7.09375 -4.78125 Z M 5.84375 -4.890625 C 5.84375 -7.546875 5.1875 -8.828125 3.84375 -8.828125 C 2.515625 -8.828125 1.859375 -7.5625 1.859375 -4.84375 C 1.859375 -2.125 2.515625 -0.8125 3.828125 -0.8125 C 5.1875 -0.8125 5.84375 -2.078125 5.84375 -4.890625 Z M 5.84375 -4.890625 "/>
</g>
<g id="glyph-10-1-f7594d85">
<path d="M 7.078125 -2.890625 C 7.078125 -1.015625 5.765625 0.203125 3.71875 0.203125 C 1.6875 0.203125 0.609375 -0.78125 0.453125 -3 C 0.453125 -3 1.6875 -3 1.6875 -3 C 1.765625 -1.546875 2.421875 -0.875 3.765625 -0.875 C 5.046875 -0.875 5.828125 -1.625 5.828125 -2.875 C 5.828125 -3.96875 5.125 -4.625 3.765625 -4.625 C 3.765625 -4.625 3.09375 -4.625 3.09375 -4.625 C 3.09375 -4.625 3.09375 -5.65625 3.09375 -5.65625 C 5.0625 -5.65625 5.53125 -6.09375 5.53125 -7.15625 C 5.53125 -8.203125 4.875 -8.84375 3.78125 -8.84375 C 2.515625 -8.84375 1.921875 -8.1875 1.890625 -6.71875 C 1.890625 -6.71875 0.65625 -6.71875 0.65625 -6.71875 C 0.703125 -8.828125 1.765625 -9.921875 3.765625 -9.921875 C 5.65625 -9.921875 6.796875 -8.90625 6.796875 -7.203125 C 6.796875 -6.203125 6.328125 -5.5625 5.40625 -5.1875 C 6.59375 -4.78125 7.078125 -4.09375 7.078125 -2.890625 Z M 7.078125 -2.890625 "/>
</g>
<g id="glyph-11-0-f7594d85">
<path d="M 4.859375 0 C 4.859375 0 3.625 0 3.625 0 C 3.625 0 3.625 -7.0625 3.625 -7.0625 C 3.625 -7.0625 1.421875 -7.0625 1.421875 -7.0625 C 1.421875 -7.0625 1.421875 -7.953125 1.421875 -7.953125 C 3.328125 -8.1875 3.609375 -8.40625 4.046875 -9.921875 C 4.046875 -9.921875 4.859375 -9.921875 4.859375 -9.921875 C 4.859375 -9.921875 4.859375 0 4.859375 0 Z M 4.859375 0 "/>
</g>
<g id="glyph-11-1-f7594d85">
<path d="M 7.09375 -4.78125 C 7.09375 -1.515625 5.953125 0.203125 3.84375 0.203125 C 1.71875 0.203125 0.609375 -1.515625 0.609375 -4.859375 C 0.609375 -8.1875 1.703125 -9.921875 3.84375 -9.921875 C 6 -9.921875 7.09375 -8.21875 7.09375 -4.78125 Z M 5.84375 -4.890625 C 5.84375 -7.546875 5.1875 -8.828125 3.84375 -8.828125 C 2.515625 -8.828125 1.859375 -7.5625 1.859375 -4.84375 C 1.859375 -2.125 2.515625 -0.8125 3.828125 -0.8125 C 5.1875 -0.8125 5.84375 -2.078125 5.84375 -4.890625 Z M 5.84375 -4.890625 "/>
</g>
<g id="glyph-12-0-f7594d85">
<path d="M 7.15625 -7.015625 C 7.15625 -5.796875 6.4375 -4.765625 5.046875 -4.015625 C 5.046875 -4.015625 3.65625 -3.265625 3.65625 -3.265625 C 2.4375 -2.546875 1.984375 -2.03125 1.859375 -1.21875 C 1.859375 -1.21875 7.078125 -1.21875 7.078125 -1.21875 C 7.078125 -1.21875 7.078125 0 7.078125 0 C 7.078125 0 0.46875 0 0.46875 0 C 0.59375 -2.1875 1.1875 -3.125 3.265625 -4.296875 C 3.265625 -4.296875 4.546875 -5.03125 4.546875 -5.03125 C 5.4375 -5.53125 5.890625 -6.203125 5.890625 -6.984375 C 5.890625 -8.046875 5.046875 -8.84375 3.9375 -8.84375 C 2.71875 -8.84375 2.03125 -8.140625 1.9375 -6.484375 C 1.9375 -6.484375 0.703125 -6.484375 0.703125 -6.484375 C 0.765625 -8.890625 1.953125 -9.921875 3.96875 -9.921875 C 5.859375 -9.921875 7.15625 -8.6875 7.15625 -7.015625 Z M 7.15625 -7.015625 "/>
</g>
<g id="glyph-12-1-f7594d85">
<path d="M 7.09375 -4.78125 C 7.09375 -1.515625 5.953125 0.203125 3.84375 0.203125 C 1.71875 0.203125 0.609375 -1.515625 0.609375 -4.859375 C 0.609375 -8.1875 1.703125 -9.921875 3.84375 -9.921875 C 6 -9.921875 7.09375 -8.21875 7.09375 -4.78125 Z M 5.84375 -4.890625 C 5.84375 -7.546875 5.1875 -8.828125 3.84375 -8.828125 C 2.515625 -8.828125 1.859375 -7.5625 1.859375 -4.84375 C 1.859375 -2.125 2.515625 -0.8125 3.828125 -0.8125 C 5.1875 -0.8125 5.84375 -2.078125 5.84375 -4.890625 Z M 5.84375 -4.890625 "/>
</g>
<g id="glyph-13-0-f7594d85">
<path d="M 12.59375 -9.484375 L 12.59375 -10.375 L 4.109375 -10.375 C 4.34375 -10.71875 4.515625 -11.078125 4.703125 -11.421875 L 3.78125 -11.71875 C 3.125 -10.34375 1.9375 -9.046875 0.734375 -8.21875 C 0.921875 -8.03125 1.265625 -7.609375 1.375 -7.40625 C 2.09375 -7.96875 2.84375 -8.6875 3.46875 -9.484375 Z M 9.78125 -2.78125 C 9.09375 -2.140625 8.140625 -1.609375 7.0625 -1.1875 C 6 -1.609375 5.125 -2.140625 4.46875 -2.78125 Z M 4.046875 -6.171875 L 10.53125 -6.171875 L 10.53125 -5.21875 L 4.046875 -5.21875 Z M 4.046875 -7.8125 L 10.53125 -7.8125 L 10.53125 -6.890625 L 4.046875 -6.890625 Z M 10.78125 -3.640625 L 10.59375 -3.578125 L 5.015625 -3.578125 C 5.25 -3.859375 5.484375 -4.15625 5.6875 -4.453125 L 5.640625 -4.46875 L 11.59375 -4.46875 L 11.59375 -8.546875 L 3.03125 -8.546875 L 3.03125 -4.46875 L 4.5625 -4.46875 C 3.78125 -3.40625 2.578125 -2.4375 1.34375 -1.796875 C 1.5625 -1.640625 1.9375 -1.296875 2.09375 -1.125 C 2.65625 -1.46875 3.234375 -1.875 3.796875 -2.359375 C 4.375 -1.734375 5.078125 -1.21875 5.890625 -0.796875 C 4.234375 -0.296875 2.359375 0 0.53125 0.140625 C 0.671875 0.390625 0.875 0.796875 0.921875 1.078125 C 3.03125 0.875 5.203125 0.46875 7.109375 -0.25 C 8.765625 0.421875 10.75 0.796875 12.84375 0.984375 C 12.96875 0.703125 13.203125 0.28125 13.40625 0.0625 C 11.578125 -0.0625 9.84375 -0.328125 8.328125 -0.765625 C 9.609375 -1.390625 10.703125 -2.1875 11.40625 -3.203125 Z M 10.78125 -3.640625 "/>
</g>
<g id="glyph-14-0-f7594d85">
<path d="M 6.125 -11.4375 C 5.90625 -10.890625 5.4375 -10.078125 5.09375 -9.59375 L 5.796875 -9.25 C 6.15625 -9.71875 6.640625 -10.421875 7.046875 -11.0625 Z M 2.890625 -9.59375 C 2.765625 -10.078125 2.375 -10.828125 1.984375 -11.375 L 1.203125 -11.0625 C 1.578125 -10.484375 1.953125 -9.71875 2.078125 -9.21875 Z M 9.03125 -8.171875 L 11.46875 -8.171875 C 11.21875 -6.4375 10.84375 -4.953125 10.234375 -3.703125 C 9.671875 -5.015625 9.28125 -6.53125 9.015625 -8.140625 Z M 5.203125 -3.4375 C 5.03125 -2.671875 4.75 -2.0625 4.328125 -1.546875 C 3.78125 -1.8125 3.21875 -2.078125 2.65625 -2.296875 C 2.84375 -2.65625 3.046875 -3.03125 3.25 -3.4375 Z M 13.390625 -8.171875 L 13.390625 -9.15625 L 9.328125 -9.15625 C 9.515625 -9.921875 9.703125 -10.734375 9.84375 -11.5625 L 8.78125 -11.71875 C 8.40625 -9.25 7.671875 -6.921875 6.5 -5.453125 C 6.734375 -5.28125 7.1875 -4.921875 7.34375 -4.734375 C 7.71875 -5.234375 8.0625 -5.828125 8.359375 -6.484375 C 8.6875 -5.046875 9.09375 -3.75 9.625 -2.625 C 8.9375 -1.5625 8.015625 -0.734375 6.8125 -0.0625 C 6.390625 -0.390625 5.828125 -0.75 5.203125 -1.09375 C 5.6875 -1.71875 6 -2.484375 6.203125 -3.4375 L 7.421875 -3.4375 L 7.421875 -4.296875 L 3.6875 -4.296875 C 3.84375 -4.640625 4 -4.96875 4.15625 -5.28125 L 3.921875 -5.328125 L 4.515625 -5.328125 L 4.515625 -7.421875 C 5.1875 -6.921875 6.078125 -6.25 6.4375 -5.90625 L 7.015625 -6.65625 C 6.640625 -6.9375 5.125 -7.875 4.515625 -8.234375 L 4.515625 -8.296875 L 7.359375 -8.296875 L 7.359375 -9.15625 L 4.515625 -9.15625 L 4.515625 -11.71875 L 3.5625 -11.71875 L 3.5625 -9.15625 L 0.6875 -9.15625 L 0.6875 -8.296875 L 3.28125 -8.296875 C 2.59375 -7.390625 1.53125 -6.53125 0.53125 -6.078125 C 0.734375 -5.890625 0.984375 -5.53125 1.109375 -5.296875 C 1.953125 -5.75 2.859375 -6.53125 3.5625 -7.34375 L 3.5625 -5.421875 L 3.1875 -5.5 C 3.03125 -5.125 2.828125 -4.71875 2.625 -4.296875 L 0.609375 -4.296875 L 0.609375 -3.4375 L 2.1875 -3.4375 C 1.8125 -2.703125 1.421875 -1.984375 1.125 -1.453125 L 2.015625 -1.140625 L 2.234375 -1.53125 C 2.703125 -1.328125 3.15625 -1.109375 3.609375 -0.875 C 2.890625 -0.359375 1.921875 -0.015625 0.625 0.203125 C 0.828125 0.40625 1.03125 0.78125 1.109375 1.0625 C 2.609375 0.734375 3.703125 0.28125 4.515625 -0.390625 C 5.171875 -0.015625 5.71875 0.359375 6.15625 0.71875 L 6.484375 0.375 C 6.65625 0.609375 6.84375 0.921875 6.9375 1.109375 C 8.296875 0.40625 9.359375 -0.484375 10.171875 -1.578125 C 10.859375 -0.46875 11.71875 0.4375 12.796875 1.0625 C 12.9375 0.78125 13.265625 0.375 13.515625 0.1875 C 12.390625 -0.40625 11.515625 -1.359375 10.8125 -2.5625 C 11.65625 -4.0625 12.1875 -5.90625 12.546875 -8.171875 Z M 13.390625 -8.171875 "/>
</g>
</g>
</defs>
<rect x="-67.2" y="-48" width="806.4" height="576" fill="rgb(100%, 100%, 100%)" fill-opacity="1"/>
<path fill-rule="nonzero" fill="rgb(100%, 100%, 100%)" fill-opacity="1" d="M 62 421 L 656 421 L 656 41 L 62 41 Z M 62 421 "/>
<path fill="none" stroke-width="1" stroke-linecap="butt" stroke-linejoin="miter" stroke="rgb(0%, 0%, 0%)" stroke-opacity="0.12" stroke-miterlimit="1.154701" d="M 209 421 L 209 41 "/>
<path fill="none" stroke-width="1" stroke-linecap="butt" stroke-linejoin="miter" stroke="rgb(0%, 0%, 0%)" stroke-opacity="0.12" stroke-miterlimit="1.154701" d="M 359 421 L 359 41 "/>
<path fill="none" stroke-width="1" stroke-linecap="butt" stroke-linejoin="miter" stroke="rgb(0%, 0%, 0%)" stroke-opacity="0.12" stroke-miterlimit="1.154701" d="M 509 421 L 509 41 "/>
<path fill="none" stroke-width="1" stroke-linecap="butt" stroke-linejoin="miter" stroke="rgb(0%, 0%, 0%)" stroke-opacity="0.12" stroke-miterlimit="1.154701" d="M 62 403.785156 L 656 403.785156 "/>
<path fill="none" stroke-width="1" stroke-linecap="butt" stroke-linejoin="miter" stroke="rgb(0%, 0%, 0%)" stroke-opacity="0.12" stroke-miterlimit="1.154701" d="M 62 287.878906 L 656 287.878906 "/>
<path fill="none" stroke-width="1" stroke-linecap="butt" stroke-linejoin="miter" stroke="rgb(0%, 0%, 0%)" stroke-opacity="0.12" stroke-miterlimit="1.154701" d="M 62 171.972656 L 656 171.972656 "/>
<path fill="none" stroke-width="1" stroke-linecap="butt" stroke-linejoin="miter" stroke="rgb(0%, 0%, 0%)" stroke-opacity="0.12" stroke-miterlimit="1.154701" d="M 62 56.066406 L 656 56.066406 "/>
<g fill="rgb(0%, 0%, 0%)" fill-opacity="1">
<use xlink:href="#glyph-0-0-f7594d85" x="344.608002" y="461.567993"/>
</g>
<g fill="rgb(0%, 0%, 0%)" fill-opacity="1">
<use xlink:href="#glyph-0-1-f7594d85" x="354.715973" y="461.567993"/>
</g>
<g fill="rgb(0%, 0%, 0%)" fill-opacity="1">
<use xlink:href="#glyph-1-0-f7594d85" x="362.500031" y="461.567993"/>
</g>
<g fill="rgb(0%, 0%, 0%)" fill-opacity="1">
<use xlink:href="#glyph-1-1-f7594d85" x="370.284027" y="461.567993"/>
</g>
<g fill="rgb(0%, 0%, 0%)" fill-opacity="1">
<use xlink:href="#glyph-2-0-f7594d85" x="197.128006" y="442.258026"/>
</g>
<g fill="rgb(0%, 0%, 0%)" fill-opacity="1">
<use xlink:href="#glyph-3-0-f7594d85" x="205.303986" y="442.258026"/>
</g>
<g fill="rgb(0%, 0%, 0%)" fill-opacity="1">
<use xlink:href="#glyph-3-1-f7594d85" x="213.087982" y="442.258026"/>
</g>
<g fill="rgb(0%, 0%, 0%)" fill-opacity="1">
<use xlink:href="#glyph-4-0-f7594d85" x="355.108002" y="442.258026"/>
</g>
<g fill="rgb(0%, 0%, 0%)" fill-opacity="1">
<use xlink:href="#glyph-4-1-f7594d85" x="501.215973" y="442.258026"/>
</g>
<g fill="rgb(0%, 0%, 0%)" fill-opacity="1">
<use xlink:href="#glyph-4-0-f7594d85" x="508.999969" y="442.258026"/>
</g>
<g fill="rgb(0%, 0%, 0%)" fill-opacity="1">
<use xlink:href="#glyph-5-0-f7594d85" x="28.37999" y="261.72998"/>
</g>
<g fill="rgb(0%, 0%, 0%)" fill-opacity="1">
<use xlink:href="#glyph-6-0-f7594d85" x="28.37999" y="257.837982"/>
</g>
<g fill="rgb(0%, 0%, 0%)" fill-opacity="1">
<use xlink:href="#glyph-7-0-f7594d85" x="28.37999" y="246.17601"/>
</g>
<g fill="rgb(0%, 0%, 0%)" fill-opacity="1">
<use xlink:href="#glyph-8-0-f7594d85" x="28.380009" y="238.391998"/>
</g>
<g fill="rgb(0%, 0%, 0%)" fill-opacity="1">
<use xlink:href="#glyph-8-1-f7594d85" x="28.380009" y="230.608002"/>
</g>
<g fill="rgb(0%, 0%, 0%)" fill-opacity="1">
<use xlink:href="#glyph-8-2-f7594d85" x="28.380009" y="227.5"/>
</g>
<g fill="rgb(0%, 0%, 0%)" fill-opacity="1">
<use xlink:href="#glyph-8-3-f7594d85" x="28.380009" y="219.716003"/>
</g>
<g fill="rgb(0%, 0%, 0%)" fill-opacity="1">
<use xlink:href="#glyph-8-4-f7594d85" x="28.380009" y="211.932007"/>
</g>
<g fill="rgb(0%, 0%, 0%)" fill-opacity="1">
<use xlink:href="#glyph-9-0-f7594d85" x="28.380009" y="207.270004"/>
</g>
<g fill="rgb(0%, 0%, 0%)" fill-opacity="1">
<use xlink:href="#glyph-10-0-f7594d85" x="44.216003" y="408.887299"/>
</g>
<g fill="rgb(0%, 0%, 0%)" fill-opacity="1">
<use xlink:href="#glyph-11-0-f7594d85" x="36.432007" y="292.981293"/>
</g>
<g fill="rgb(0%, 0%, 0%)" fill-opacity="1">
<use xlink:href="#glyph-11-1-f7594d85" x="44.216003" y="292.981293"/>
</g>
<g fill="rgb(0%, 0%, 0%)" fill-opacity="1">
<use xlink:href="#glyph-12-0-f7594d85" x="36.432007" y="177.075226"/>
</g>
<g fill="rgb(0%, 0%, 0%)" fill-opacity="1">
<use xlink:href="#glyph-12-1-f7594d85" x="44.216003" y="177.075226"/>
</g>
<g fill="rgb(0%, 0%, 0%)" fill-opacity="1">
<use xlink:href="#glyph-10-1-f7594d85" x="36.432007" y="61.169228"/>
</g>
<g fill="rgb(0%, 0%, 0%)" fill-opacity="1">
<use xlink:href="#glyph-10-0-f7594d85" x="44.216003" y="61.169228"/>
</g>
<g fill="rgb(0%, 0%, 0%)" fill-opacity="1">
<use xlink:href="#glyph-13-0-f7594d85" x="345" y="32.520004"/>
</g>
<g fill="rgb(0%, 0%, 0%)" fill-opacity="1">
<use xlink:href="#glyph-14-0-f7594d85" x="359" y="32.520004"/>
</g>
<path fill="none" stroke-width="1.5" stroke-linecap="butt" stroke-linejoin="miter" stroke="rgb(0%, 44.705883%, 69.803923%)" stroke-opacity="1" stroke-miterlimit="2" d="M 89 388.507813 L 92 367.910156 L 95 358.9375 L 98 362.226563 L 101 375.484375 L 104 394.355469 L 107 393.9375 L 110 379.042969 L 113 371.785156 L 116 373.265625 L 119 382.363281 L 122 396.171875 L 125 396.707031 L 128 384.902344 L 131 378.753906 L 134 379.421875 L 137 386.292969 L 140 397.222656 L 143 398.382813 L 146 388.492188 L 149 383.085938 L 152 383.304688 L 155 388.792969 L 158 397.882813 L 161 399.503906 L 164 390.894531 L 167 386.007813 L 170 385.9375 L 173 390.496094 L 176 398.320313 L 179 400.304688 L 182 392.601563 L 185 388.082031 L 188 387.808594 L 191 391.699219 L 194 398.613281 L 197 400.910156 L 200 393.859375 L 203 389.605469 L 206 389.175781 L 209 392.570313 L 212 398.808594 L 215 401.382813 L 218 394.816406 L 221 390.75 L 224 390.1875 L 227 393.199219 L 230 398.921875 L 233 401.765625 L 236 395.550781 L 239 391.613281 L 242 390.941406 L 245 393.648438 L 248 398.976563 L 251 402.089844 L 254 396.128906 L 257 392.265625 L 260 391.488281 L 263 393.953125 L 266 398.976563 L 269 402.363281 L 272 396.578125 L 275 392.75 L 278 391.867188 L 281 394.132813 L 284 398.925781 L 287 402.605469 L 290 396.925781 L 293 393.089844 L 296 392.101563 L 299 394.207031 L 302 398.828125 L 305 402.828125 L 308 397.1875 L 311 393.308594 L 314 392.210938 L 317 394.175781 L 320 398.683594 L 323 403.03125 L 326 397.375 L 329 393.414063 L 332 392.195313 L 335 394.046875 L 338 398.480469 L 341 403.230469 L 344 397.5 L 347 393.410156 L 350 392.054688 L 353 393.808594 L 356 398.222656 L 359 403.425781 L 362 397.554688 L 365 393.292969 L 368 391.785156 L 371 393.453125 L 374 397.890625 L 377 403.628906 L 380 397.546875 L 383 393.058594 L 386 391.367188 L 389 392.964844 L 392 397.472656 L 395 403.726563 L 398 397.472656 L 401 392.683594 L 404 390.78125 L 407 392.316406 L 410 396.945313 L 413 403.492188 L 416 397.316406 L 419 392.148438 L 422 389.980469 L 425 391.460938 L 428 396.277344 L 431 403.222656 L 434 397.070313 L 437 391.40625 L 440 388.90625 L 443 390.332031 L 446 395.414063 L 449 402.902344 L 452 396.703125 L 455 390.386719 L 458 387.464844 L 461 388.835938 L 464 394.289063 L 467 402.507813 L 470 396.171875 L 473 388.984375 L 476 385.492188 L 479 386.796875 L 482 392.761719 L 485 401.996094 L 488 395.410156 L 491 387.003906 L 494 382.71875 L 497 383.929688 L 500 390.613281 L 503 401.285156 L 506 394.273438 L 509 384.09375 L 512 378.621094 L 515 379.664063 L 518 387.402344 L 521 400.238281 L 524 392.492188 L 527 379.515625 L 530 372.105469 L 533 372.78125 L 536 382.136719 L 539 398.503906 L 542 389.40625 L 545 371.457031 L 548 360.339844 L 551 360 L 554 372.050781 L 557 395.082031 L 560 382.96875 L 563 353.878906 L 566 333.265625 L 569 328.65625 L 572 345.378906 L 575 385.195313 L 578 361.984375 L 581 287.675781 L 584 209.269531 L 587 138.105469 L 590 85.003906 L 593 58.273438 L 596 62.160156 L 599 96.042969 L 602 154.558594 L 605 228.59375 L 608 307.015625 L 611 378.671875 L 614 373.164063 L 617 339.046875 L 620 327.964844 L 623 337.175781 L 626 360.660156 L 629 390.589844 "/>
<path fill="none" stroke-width="1" stroke-linecap="butt" stroke-linejoin="miter" stroke="rgb(0%, 0%, 0%)" stroke-opacity="1" stroke-miterlimit="1.154701" d="M 209 421.5 L 209 426.5 "/>
<path fill="none" stroke-width="1" stroke-linecap="butt" stroke-linejoin="miter" stroke="rgb(0%, 0%, 0%)" stroke-opacity="1" stroke-miterlimit="1.154701" d="M 359 421.5 L 359 426.5 "/>
<path fill="none" stroke-width="1" stroke-linecap="butt" stroke-linejoin="miter" stroke="rgb(0%, 0%, 0%)" stroke-opacity="1" stroke-miterlimit="1.154701" d="M 509 421.5 L 509 426.5 "/>
<path fill="none" stroke-width="1" stroke-linecap="butt" stroke-linejoin="miter" stroke="rgb(0%, 0%, 0%)" stroke-opacity="1" stroke-miterlimit="1.154701" d="M 61.5 403.785156 L 56.5 403.785156 "/>
<path fill="none" stroke-width="1" stroke-linecap="butt" stroke-linejoin="miter" stroke="rgb(0%, 0%, 0%)" stroke-opacity="1" stroke-miterlimit="1.154701" d="M 61.5 287.878906 L 56.5 287.878906 "/>
<path fill="none" stroke-width="1" stroke-linecap="butt" stroke-linejoin="miter" stroke="rgb(0%, 0%, 0%)" stroke-opacity="1" stroke-miterlimit="1.154701" d="M 61.5 171.972656 L 56.5 171.972656 "/>
<path fill="none" stroke-width="1" stroke-linecap="butt" stroke-linejoin="miter" stroke="rgb(0%, 0%, 0%)" stroke-opacity="1" stroke-miterlimit="1.154701" d="M 61.5 56.066406 L 56.5 56.066406 "/>
<path fill="none" stroke-width="1" stroke-linecap="butt" stroke-linejoin="miter" stroke="rgb(0%, 0%, 0%)" stroke-opacity="1" stroke-miterlimit="1.154701" d="M 61.5 421 L 656.5 421 "/>
<path fill="none" stroke-width="1" stroke-linecap="butt" stroke-linejoin="miter" stroke="rgb(0%, 0%, 0%)" stroke-opacity="1" stroke-miterlimit="1.154701" d="M 62 421.5 L 62 40.5 "/>
<path fill="none" stroke-width="1" stroke-linecap="butt" stroke-linejoin="miter" stroke="rgb(0%, 0%, 0%)" stroke-opacity="1" stroke-miterlimit="1.154701" d="M 61.5 41 L 656.5 41 "/>
<path fill="none" stroke-width="1" stroke-linecap="butt" stroke-linejoin="miter" stroke="rgb(0%, 0%, 0%)" stroke-opacity="1" stroke-miterlimit="1.154701" d="M 656 421.5 L 656 40.5 "/>
</svg>
